PathFileType	4	(X/Y/Z)	..\data\2014022\dynamic\2014022_C4_04.trc
DataRate	CameraRate	NumFrames	NumMarkers	Units	OrigDataRate	OrigDataStartFrame	OrigNumFrames
100.000000	100.000000	4	52	mm	100.000000	21	173
Frame#	Time	L_IAS			L_IPS			R_IPS			R_IAS			L_FTC			L_FLE			L_FME			L_FAX			L_TTC			L_FAL			L_TAM			L_FCC			L_FM1			L_FM2			L_FM5			R_FTC			R_FLE			R_FME			R_FAX			R_TTC			R_FAL			R_TAM			R_FCC			R_FM1			R_FM2			R_FM5			CV7			TV10			SXS			SJN			L_SIA			L_SRS			L_SAA			L_SAE			L_HLE			L_HME			L_UOA			L_RSP			L_UHE			L_HM2			L_HM5			R_SIA			R_SRS			R_SAA			R_SAE			R_HLE			R_HME			R_UOA			R_RSP			R_UHE			R_HM2			R_HM5			
		X1	Y1	Z1	X2	Y2	Z2	X3	Y3	Z3	X4	Y4	Z4	X5	Y5	Z5	X6	Y6	Z6	X7	Y7	Z7	X8	Y8	Z8	X9	Y9	Z9	X10	Y10	Z10	X11	Y11	Z11	X12	Y12	Z12	X13	Y13	Z13	X14	Y14	Z14	X15	Y15	Z15	X16	Y16	Z16	X17	Y17	Z17	X18	Y18	Z18	X19	Y19	Z19	X20	Y20	Z20	X21	Y21	Z21	X22	Y22	Z22	X23	Y23	Z23	X24	Y24	Z24	X25	Y25	Z25	X26	Y26	Z26	X27	Y27	Z27	X28	Y28	Z28	X29	Y29	Z29	X30	Y30	Z30	X31	Y31	Z31	X32	Y32	Z32	X33	Y33	Z33	X34	Y34	Z34	X35	Y35	Z35	X36	Y36	Z36	X37	Y37	Z37	X38	Y38	Z38	X39	Y39	Z39	X40	Y40	Z40	X41	Y41	Z41	X42	Y42	Z42	X43	Y43	Z43	X44	Y44	Z44	X45	Y45	Z45	X46	Y46	Z46	X47	Y47	Z47	X48	Y48	Z48	X49	Y49	Z49	X50	Y50	Z50	X51	Y51	Z51	X52	Y52	Z52	

22	0.21	-812.7319335937502	950.2775878906252	153.8228302001952	-1016.578430175781	958.4844970703127	197.2590026855468	-1026.219848632813	949.6800537109377	309.3070068359374	-852.374938964844	921.805358886719	392.8255920410156	-876.6870727539065	895.946960449219	72.89760589599599	-834.5330810546877	460.6278381347657	122.8786926269531	-888.3113403320315	450.993133544922	250.5543365478515	-856.7751464843752	406.4119567871095	117.6007766723632	-800.1848144531252	401.8602600097657	187.528091430664	-824.8214111328127	64.81295013427736	198.9651641845703	-818.975280761719	82.98091125488283	283.1808776855468	-860.584411621094	18.7315845489502	247.3698425292968	-682.2816772460939	14.46859741210938	297.6117248535156	-670.3057250976564	34.54964828491212	238.0959167480468	-710.4122924804689	19.98616027832032	183.9691162109374	-933.9666748046877	847.9155273437502	441.6361694335938	-911.8397216796877	436.4365539550782	406.1139221191406	-869.235290527344	426.2914123535157	273.9635925292968	-953.0272216796877	409.3250732421876	408.2596435546875	-905.522888183594	356.5170593261719	360.5198974609374	-1225.256713867188	217.4398651123047	340.5756530761718	-1202.146484375	209.810287475586	257.1320800781249	-1273.52978515625	235.9007110595704	287.9107666015624	-1220.376953125	77.72920227050783	229.205581665039	-1208.730346679688	66.31325531005861	286.6347351074218	-1241.090942382813	83.80072021484376	335.2680664062499	-965.768981933594	1431.171752929688	236.6899719238281	-1048.3291015625	1211.778442382813	250.8882446289062	-812.6215820312502	1139.546142578125	262.0716552734374	-853.7287597656252	1354.808349609375	249.2904357910156	-1053.954711914063	1238.262573242188	169.025909423828	-1010.95068359375	1378.317993164063	177.1806335449218	-975.6033935546877	1380.872680664063	110.1590881347655	-924.269226074219	1361.318969726563	63.7079963684081	-1003.695068359375	1058.119873046875	12.25845336914051	-985.2347412109377	1040.681518554688	99.4026565551757	-1014.037902832031	1033.96875	49.49118041992177	-944.165466308594	813.089050292969	-16.91622161865246	-1016.714294433594	836.6948242187502	-26.95812416076673	-952.4493408203127	729.0723876953126	-49.40275955200208	-1045.362182617188	760.8727416992189	-21.51067733764662	-1061.383422851563	1249.55615234375	336.0592041015624	-1012.802673339844	1388.42333984375	313.8090820312499	-982.3206787109377	1393.461791992188	394.5448913574219	-936.7901000976565	1393.18017578125	428.3175964355469	-972.5529785156253	1076.814575195313	492.28076171875	-949.485290527344	1060.776733398438	412.1664733886719	-973.0926513671877	1047.219604492188	460.0736694335938	-815.8052368164066	897.5747070312502	568.6011962890625	-876.8640747070316	866.1206054687502	542.8974609375	-779.2486572265628	821.6678466796877	607.4356689453125	-844.0744018554691	790.2053222656252	537.8599853515625	
23	0.22	-801.404235839844	950.9107055664065	154.5341796874999	-1005.025390625	959.6080322265627	196.8487701416015	-1015.407897949219	950.278015136719	308.3895874023437	-842.1143798828127	922.949401855469	393.8405456542969	-865.1841430664065	896.9270019531252	72.91863250732413	-830.5891723632815	460.8352966308595	122.3933792114257	-883.7415771484377	452.0435791015626	250.3625488281249	-853.5960083007815	406.8293762207032	117.3880310058593	-796.4897460937502	401.6220092773439	187.0768585205078	-824.8148193359377	64.9719696044922	199.009292602539	-819.0037841796877	83.1231155395508	283.2020568847656	-860.652282714844	18.67238998413086	247.3154907226562	-682.4618530273439	14.7030029296875	297.6318054199219	-670.3542480468751	34.81359100341798	238.0692138671875	-710.4900512695314	20.17370033264161	184.0237731933593	-923.5941162109377	848.6826171875002	441.2809448242188	-887.2969970703127	438.1849670410157	407.4006652832031	-844.6986083984377	428.2247924804689	274.6685485839843	-927.5500488281252	411.1898498535157	409.7199401855469	-880.2469482421877	358.4296569824219	361.4855957031249	-1200.945434570313	221.2374267578126	343.4221801757811	-1178.28564453125	213.1197967529297	259.7927246093749	-1249.8515625	238.6823120117188	290.7313842773436	-1194.366088867188	80.13527679443361	234.6841583251952	-1183.094848632813	69.25379943847658	291.8848571777343	-1215.54296875	88.06755828857423	340.1509704589843	-953.959655761719	1432.166870117188	236.7036590576171	-1036.566284179688	1212.9775390625	250.6454467773437	-801.6314086914065	1140.2216796875	263.2927246093749	-842.015563964844	1355.694580078125	249.7943115234374	-1041.977661132813	1239.37158203125	168.8110961914062	-998.8275146484377	1379.094116210938	176.6846160888671	-963.1279907226565	1381.693603515625	110.1544723510741	-911.3865966796877	1361.921997070313	64.04274749755849	-985.515075683594	1057.69384765625	10.83549785614002	-969.2872314453127	1040.271606445313	98.33895874023429	-996.5787353515627	1033.497192382813	47.88254165649403	-921.9704589843752	813.5979003906252	-16.43765640258801	-993.829528808594	835.957946777344	-29.14149475097669	-926.9880981445315	729.6447753906251	-49.14368820190442	-1021.357727050781	760.0008544921876	-25.08560371398939	-1050.057983398438	1250.866821289063	335.8215942382812	-1001.293823242188	1389.602416992188	313.7136535644531	-971.0671386718752	1394.792236328125	394.5485534667969	-925.7039794921877	1394.558959960938	428.4725341796875	-960.9838256835941	1078.339721679688	492.9804992675781	-938.9898681640627	1062.157104492188	412.7777709960938	-962.391540527344	1049.031494140625	460.7593078613281	-806.3740234375003	896.461853027344	566.9642333984375	-869.4669189453128	866.7288208007815	544.3306274414062	-771.2047729492191	819.9326782226565	605.7772827148438	-839.9515991210941	789.5841064453127	539.7095947265625	
24	0.23	-790.2611083984377	951.2420043945315	155.2279815673828	-993.595153808594	960.6016845703127	196.3174438476562	-1004.779602050781	950.9742431640627	307.3209228515624	-831.938903808594	924.330017089844	394.9205932617188	-853.965026855469	897.4331665039065	72.94231414794913	-826.7659301757815	460.9400634765626	122.226333618164	-878.992370605469	452.943328857422	250.5911102294921	-850.5328369140627	407.1721496582032	117.5491027832031	-792.7923583984377	401.3005371093751	186.9068756103515	-824.7847290039065	65.1135711669922	199.1871795654296	-818.854187011719	83.13681793212892	283.3974914550781	-860.7397460937502	18.62224960327149	247.3539276123046	-682.5938110351564	14.80200004577637	297.6468505859375	-670.3843994140626	34.95877838134766	238.0443725585937	-710.5924682617189	20.24264526367188	184.1048583984374	-913.9028320312502	849.794372558594	440.7861938476562	-863.074645996094	440.5268554687501	408.37255859375	-820.7996215820315	431.0053710937501	275.0663452148437	-902.4321289062502	413.533905029297	410.7384948730469	-855.0926513671877	360.9209594726563	362.2018737792968	-1175.898559570313	223.7962951660157	346.2202758789061	-1153.675415039063	215.2463378906251	262.3930053710937	-1225.6640625	239.4311676025391	293.4708251953124	-1165.886108398438	81.36245727539064	240.5013732910155	-1154.85986328125	71.6379852294922	297.5070190429687	-1187.606689453125	91.30422973632814	345.4142761230468	-942.2388305664065	1433.156372070313	236.8207550048828	-1024.956909179688	1214.161499023438	250.3853454589843	-790.795837402344	1140.836059570313	264.4942321777343	-830.401062011719	1356.5498046875	250.3303833007812	-1030.16552734375	1240.503051757813	168.6112518310546	-986.852478027344	1379.8994140625	176.323760986328	-950.822937011719	1382.54345703125	110.2356567382812	-898.697204589844	1362.55859375	64.4597167968749	-967.2625732421877	1057.316650390625	9.571903228759648	-953.298034667969	1039.873046875	97.35134887695304	-979.0410156250002	1033.035278320313	46.4173011779784	-899.3427734375002	814.3899536132815	-15.79516124725353	-970.595886230469	835.3049316406252	-31.0900688171388	-900.9381103515627	730.5752563476564	-48.65418624877942	-996.6801757812502	759.1087646484376	-28.34827423095716	-1038.834228515625	1252.091796875	335.5719604492187	-989.875427246094	1390.734985351563	313.6953124999999	-959.8967285156252	1396.01806640625	394.6246643066406	-914.726989746094	1395.807983398438	428.6997680664062	-949.4542846679691	1079.717041015625	493.6554260253906	-928.6065063476565	1063.396850585938	413.3709106445312	-951.7691650390627	1050.734252929688	461.4202880859375	-797.1544189453128	895.170349121094	565.162109375	-862.1614379882816	867.2613525390627	545.7559204101562	-763.103942871094	818.1082763671877	603.7031860351562	-835.7305908203128	789.0488891601565	541.4317016601562	
25	0.24	-779.2954101562502	951.3340454101565	155.8654327392578	-982.3049316406252	961.4883422851565	195.7172698974609	-994.2840576171877	951.7718505859377	306.1902160644531	-821.7728271484377	925.9299316406252	395.9888000488281	-843.037292480469	897.5444946289065	72.97027587890616	-822.9146118164065	460.9792480468751	122.3694686889648	-874.0450439453127	453.7083740234376	251.1744079589843	-847.4395141601565	407.4808349609376	118.0330963134765	-789.0246582031252	400.9197692871095	187.0034179687499	-824.6994628906252	65.24964904785158	199.4766082763671	-818.520935058594	83.04126739501955	283.7429809570312	-860.8284301757815	18.60634231567383	247.4662322998046	-682.6709594726564	14.75196266174317	297.6630249023438	-670.3790893554689	34.97855758666993	238.0312957763672	-710.7049560546876	20.21280860900879	184.195083618164	-904.724060058594	851.1829833984377	440.2053527832031	-839.2312011718752	443.3731994628907	409.0374450683594	-797.5316162109377	434.518524169922	275.2027282714843	-877.7686157226565	416.2800598144532	411.3323974609375	-830.1362915039065	363.9213562011719	362.7161560058593	-1150.189575195313	225.0124664306641	348.9746704101562	-1128.348510742188	216.0576629638672	264.9517822265624	-1200.984375	238.1431121826172	296.1388549804686	-1135.205200195313	81.4180374145508	246.5619354248046	-1124.3095703125	73.38282012939455	303.4018249511718	-1157.551513671875	93.42453765869142	350.9577636718749	-930.5971679687502	1434.140502929688	237.0292358398437	-1013.484191894531	1215.321411132813	250.1045684814453	-780.0881958007815	1141.40673828125	265.6411132812499	-818.8748168945315	1357.376098632813	250.8777160644531	-1018.509216308594	1241.659912109375	168.4128417968749	-975.023620605469	1380.748901367188	176.1079711914062	-938.6892089843752	1383.430541992188	110.387969970703	-886.2031860351565	1363.25	64.94026947021474	-948.9846191406252	1057.025634765625	8.484516143798714	-937.2506103515627	1039.537231445313	96.45967864990226	-961.4362792968752	1032.604248046875	45.11343765258778	-876.2819824218752	815.511413574219	-14.96732139587413	-947.0498046875002	834.7961425781252	-32.75017929077161	-874.373474121094	731.9262084960939	-47.92434310913097	-971.3848266601565	758.2666015625001	-31.23019599914563	-1027.69287109375	1253.236450195313	335.3110046386718	-978.5294189453127	1391.8203125	313.7471008300781	-948.7846679687502	1397.138793945313	394.76318359375	-903.8233032226565	1396.92724609375	428.9855041503906	-938.0108642578128	1080.953857421875	494.2776489257812	-918.325378417969	1064.510131835938	413.9175415039062	-941.238952636719	1052.324462890625	462.0269165039062	-788.1728515625003	893.7308349609377	563.2297973632812	-854.9276123046878	867.7173461914065	547.1268920898438	-754.9971923828127	816.2075195312502	601.2643432617188	-831.3793945312503	788.591491699219	543.0028076171875	
